<svg xmlns="http://www.w3.org/2000/svg" xml:space="preserve" viewBox="0 0 409.09 563.17"><switch><g><g fill-rule="evenodd" clip-rule="evenodd"><path d="M199.559 0h10.046c31.755 1.144 58.058 8.147 80.771 18.811 22.641 10.637 42.125 24.452 58.634 40.949 16.503 16.513 30.45 35.838 41.031 58.548 10.551 22.647 17.958 48.787 19.046 80.518v14.275c-1.569 44.32-11.17 81.438-23.429 115.306-12.24 33.817-28.231 64.093-45.811 92.86-17.44 28.526-37.37 55.021-58.388 80.349-10.383 12.505-21.354 24.685-32.759 36.589-5.555 5.753-10.924 12.24-17.844 16.863-6.859 4.557-15.66 8.104-26.518 8.104-11.038 0-19.497-3.781-26.35-8.356-6.98-4.665-12.229-11.134-17.844-16.863-5.747-5.861-11.194-12.006-16.623-18.09-27.252-30.54-52.075-63.287-74.361-98.926-17.843-28.545-33.493-59.115-45.811-92.932C11.026 294.199 1.569 256.955 0 212.695v-12.896c.054-.006.09-.06.078-.159.806-32.059 8.327-58.15 18.811-80.929 10.527-22.857 24.541-42.139 41.11-58.707s35.849-30.499 58.628-41.116C141.376 8.288 167.684 1.039 199.559 0zm-24.005 34.543c-7.497 1.225-14.621 2.901-21.33 5.024-39.763 12.582-69.66 36.061-91.219 66.825-7.227 10.298-13.461 21.73-18.42 34.214-5.008 12.649-8.777 26.338-10.779 41.927-2.008 15.718-1.509 33.679.084 49.866 1.587 16.031 4.269 30.995 7.785 44.918 10.533 41.801 27.06 78.467 46.298 111.744 19.34 33.462 41.458 63.708 65.446 92.607 3.95 4.779 8.128 9.396 12.24 14.109 8.23 9.427 16.509 18.451 25.388 27.337 2.056 2.038 4.25 4.568 7.124 6.006 3.066 1.509 7.509 1.924 10.876.715 2.964-1.058 5.368-3.096 7.701-5.429 6.637-6.631 13.1-13.442 19.214-20.272 24.979-27.828 48.474-57.125 69.095-88.952 20.663-31.923 39.21-66.365 52.713-105.353 4.526-13.082 8.507-26.771 11.585-41.097 4.593-21.345 8.031-45.519 7.22-71.283-.258-8.165-1.322-16.232-2.597-23.759-2.489-14.747-7.064-28.076-12.487-40.21-5.435-12.186-12.18-23.041-19.7-33.015-15.192-20.116-33.757-36.081-56.843-48.491-11.339-6.099-24.018-11.038-38.116-14.597-13.809-3.479-30.077-6.017-47.361-5.187-8.545.405-16.39 1.121-23.917 2.353z"/><path d="M319.647 124.062c-13.568-5.805-33.967-8.904-52.712-5.829-28.707 4.692-48.709 19.368-62.356 39.078-10.923-15.772-25.959-28.325-46.213-35.025-5.044-1.671-10.443-3.171-16.304-4.052-18.607-2.811-39.018-.174-52.623 5.829-.054-.466.523-.947.89-1.455 11.549-15.901 25.893-29.23 43.297-39.414 18.126-10.595 38.939-17.863 66.173-19.135 15.018-.697 29.127 1.49 40.623 4.542 23.892 6.347 42.438 17.515 58.388 31.625 7.533 6.673 14.693 14.669 20.519 23.107.12.176.499.428.318.729z"/><path d="M123.581 146.85c12.475-.595 23.453 2.299 32.272 6.73 8.471 4.263 15.595 10.485 21 17.928 5.507 7.587 9.457 16.47 11.188 27.805.884 5.777.89 11.97.89 18.571v58.472c0 3.205-.481 6.841.252 9.318.686 2.363 2.357 4.136 5.507 4.214 6.023.171 12.528.126 19.382.078 3.108-.018 5.038-1.449 5.832-3.968.745-2.363.337-6.162.337-9.396 0-19.461-.229-38.873.078-58.322.102-6.812-.15-12.802.721-18.64 2.489-16.428 10.034-29.035 20.44-37.95 6.662-5.711 15.806-10.656 26.026-12.974 5.212-1.178 11.314-1.92 17.681-1.623 6.265.295 11.639 1.13 16.779 2.669 9.907 2.988 18.138 7.836 24.654 14.362 9.758 9.757 16.852 22.166 18.403 39.967.522 5.913-.061 12.246-.806 18.171-1.449 11.513-4.215 21.904-7.623 31.316-6.848 18.916-17.375 34.409-29.916 47.99-12.312 13.334-27.931 24.409-45.738 32.188-8.987 3.938-18.806 7.154-29.759 9.24-11.014 2.116-23.429 3.126-36.005 2.291-23.934-1.605-43.544-8.573-59.921-18-16.406-9.463-30.204-21.409-41.765-36.186-14.327-18.282-24.967-40.34-28.623-68.839-.751-5.834-1.335-12.102-.818-18.171 1.004-11.666 4.666-21.426 9.655-29.266 9.832-15.455 26.04-26.842 49.877-27.975zm-21.331 12.246c-6.096 2.907-11.26 6.962-15.571 11.597-4.449 4.789-7.984 9.911-10.701 16.458-2.633 6.331-4.376 14.422-3.986 23.119.781 16.909 7.966 28.25 17.116 37.21 4.509 4.419 10.022 8.059 16.455 10.702 6.499 2.678 14.393 4.407 23.206 4.064 8.345-.343 15.565-2.585 21.565-5.603 6.072-3.048 11.368-6.83 15.655-11.513 8.633-9.427 15.162-21.697 14.669-39.573-.222-8.089-2.609-15.658-5.507-21.652-3.018-6.225-6.739-11.134-11.591-15.559-9.132-8.314-21.841-15.613-39.673-14.765-8.567.408-15.504 2.59-21.637 5.515zm140.925 11.597c-4.557 4.645-8.008 9.839-10.701 16.458-2.507 6.168-4.442 14.26-4.052 23.119.367 8.348 2.543 15.487 5.591 21.562 3.085 6.114 6.782 11.248 11.52 15.648 9.012 8.369 21.883 15.463 39.654 14.766 8.362-.343 15.57-2.585 21.648-5.525 6.091-2.922 11.272-6.968 15.571-11.591 4.322-4.665 8.014-9.977 10.701-16.454 2.646-6.379 4.449-14.164 4.064-23.119-.361-8.173-2.531-15.688-5.525-21.652-5.964-11.868-15.324-21.009-28.046-26.266-6.396-2.645-14.5-4.473-23.199-4.058-17.193.823-28.327 8.037-37.226 17.112z"/><path d="M125.36 184.881c7.25-.388 13.016 2.78 16.779 6.246 3.841 3.523 6.998 8.907 7.214 15.806.24 7.521-2.543 12.832-6.234 16.785-3.655 3.929-9.229 6.947-15.817 7.226-7.316.31-13.04-2.582-16.785-6.237-3.962-3.89-6.818-8.711-7.214-15.823-.415-7.238 2.621-12.926 6.168-16.701 3.685-3.929 8.507-6.905 15.889-7.302zM281.869 184.881c7.046-.376 13.238 2.699 16.785 6.246 3.77 3.772 6.89 8.766 7.208 15.806.343 7.467-2.669 12.856-6.246 16.785-3.577 3.944-9.276 6.947-15.806 7.226-7.467.31-12.835-2.621-16.785-6.237-3.938-3.61-6.985-8.994-7.292-15.745-.343-7.374 2.639-13.112 6.234-16.779 3.829-3.908 8.344-6.896 15.902-7.302zM173.041 373.989c-8.826 15.739-18.565 30.57-28.707 44.987-17.405-24.469-33.114-50.668-46.55-79.135-.018-.138.078-.156.078-.078 20.476 15.992 44.542 28.406 75.179 34.226zM164.041 445.188c15.781-21.402 30.21-44.176 43.292-68.289 45.583-1.419 77.319-16.695 103.88-37.136-13.611 29.326-29.903 56.283-47.999 81.504-15.643 21.793-32.795 42.684-50.843 62.349-1.846 2.009-3.793 4.154-5.844 6.331-.505.529-1.833 2.02-1.948 2.038-.132 0-.962-.98-1.376-1.401-3.229-3.222-6.187-6.732-9.15-9.974-10.443-11.357-20.453-23.302-30.012-35.422z"/></g></g></switch></svg>