<svg xmlns="http://www.w3.org/2000/svg" width="24" height="24" viewBox="0 0 24 24"><path fill="currentColor" d="M4.126 20q-.234 0-.414-.111t-.28-.293q-.108-.179-.12-.387q-.01-.209.118-.421L11.3 5.212q.128-.212.308-.308T12 4.808t.391.096t.308.308l7.871 13.576q.128.212.117.42q-.01.21-.12.388q-.1.182-.28.293t-.413.111zm.324-1h15.1L12 6zM12 17.616q.262 0 .439-.177t.176-.439t-.177-.438t-.438-.178t-.438.177t-.177.439t.177.439t.438.177m0-2.231q.214 0 .357-.144t.143-.356v-4q0-.213-.144-.357t-.357-.143t-.356.143t-.143.357v4q0 .212.144.356t.357.144M12 12.5" stroke-width="1.2" stroke="currentColor"/></svg>
