<svg xmlns="http://www.w3.org/2000/svg" width="64" height="64" viewBox="0 0 64 64"><path d="M58.238 22.221c.35.952.054 2.013-.7 2.691l-4.736 4.309c.12.908.186 1.838.186 2.778 0 .941-.066 1.87-.186 2.778l4.736 4.31c.754.678 1.05 1.739.7 2.69-.482 1.302-1.061 2.548-1.729 3.752l-.514.885c-.721 1.204-1.531 2.341-2.417 3.413-.645.787-1.717 1.05-2.679.744l-6.092-1.936c-1.466 1.126-3.085 2.067-4.813 2.778l-1.367 6.245c-.219.995-.984 1.783-1.99 1.947-1.51.251-3.063.382-4.649.382-1.586 0-3.139-.131-4.648-.382-1.006-.164-1.772-.952-1.991-1.947l-1.367-6.245c-1.728-.711-3.347-1.652-4.812-2.778l-6.081 1.947c-.963.306-2.035.032-2.68-.744a27.8618 27.8618 0 0 1-2.417-3.413l-.514-.886c-.667-1.203-1.247-2.449-1.728-3.751-.35-.952-.055-2.012.7-2.691l4.736-4.309c-.121-.919-.186-1.848-.186-2.789 0-.94.065-1.87.186-2.778L6.45 24.912c-.755-.678-1.05-1.739-.7-2.691.481-1.301 1.061-2.548 1.728-3.751l.514-.886a27.7743 27.7743 0 0 1 2.417-3.412c.645-.788 1.717-1.05 2.68-.744l6.092 1.936c1.465-1.127 3.084-2.067 4.812-2.778l1.367-6.245c.219-.996.985-1.783 1.991-1.947C28.86 4.131 30.413 4 31.999 4c1.586 0 3.139.131 4.649.383 1.006.164 1.771.951 1.99 1.947l1.367 6.245c1.728.711 3.347 1.651 4.813 2.778l6.092-1.936c.962-.306 2.034-.033 2.679.744.886 1.071 1.696 2.209 2.417 3.412l.514.886c.668 1.203 1.247 2.45 1.728 3.751l-.01.011ZM31.999 40.749c4.834 0 8.75-3.916 8.75-8.75s-3.916-8.75-8.75-8.75-8.75 3.916-8.75 8.75 3.916 8.75 8.75 8.75Z"/></svg>