<svg xmlns="http://www.w3.org/2000/svg" width="64px" height="64px" viewBox="0 0 64 64"><path d="M21.738,49.675C21.738,49.925 21.45,50.125 21.088,50.125C20.675,50.163 20.388,49.963 20.388,49.675C20.388,49.425 20.675,49.225 21.038,49.225C21.413,49.187 21.738,49.387 21.738,49.675ZM17.85,49.112C17.763,49.362 18.013,49.65 18.388,49.725C18.713,49.85 19.088,49.725 19.163,49.475C19.238,49.225 19,48.937 18.625,48.825C18.3,48.737 17.938,48.862 17.85,49.112ZM23.375,48.9C23.013,48.987 22.763,49.225 22.8,49.512C22.838,49.762 23.163,49.925 23.538,49.838C23.9,49.75 24.15,49.512 24.113,49.262C24.075,49.025 23.738,48.862 23.375,48.9ZM31.6,1C14.262,1 1,14.163 1,31.5C1,45.362 9.725,57.225 22.188,61.4C23.788,61.688 24.35,60.7 24.35,59.887C24.35,59.112 24.313,54.838 24.313,52.213C24.313,52.213 15.563,54.088 13.725,48.487C13.725,48.487 12.3,44.85 10.25,43.912C10.25,43.912 7.388,41.95 10.45,41.987C10.45,41.987 13.563,42.237 15.275,45.213C18.013,50.038 22.6,48.65 24.388,47.825C24.675,45.825 25.488,44.437 26.388,43.612C19.4,42.838 12.35,41.825 12.35,29.8C12.35,26.362 13.3,24.637 15.3,22.437C14.975,21.625 13.913,18.275 15.625,13.95C18.238,13.137 24.25,17.325 24.25,17.325C26.75,16.625 29.438,16.262 32.1,16.262C34.763,16.262 37.45,16.625 39.95,17.325C39.95,17.325 45.963,13.125 48.575,13.95C50.288,18.287 49.225,21.625 48.9,22.437C50.9,24.65 52.125,26.375 52.125,29.8C52.125,41.862 44.763,42.825 37.775,43.612C38.925,44.6 39.9,46.475 39.9,49.412C39.9,53.625 39.863,58.837 39.863,59.862C39.863,60.675 40.438,61.662 42.025,61.375C54.525,57.225 63,45.362 63,31.5C63,14.163 48.938,1 31.6,1ZM13.15,44.112C12.988,44.237 13.025,44.525 13.238,44.762C13.438,44.963 13.725,45.05 13.888,44.887C14.05,44.762 14.013,44.475 13.8,44.237C13.6,44.037 13.313,43.95 13.15,44.112ZM11.8,43.1C11.713,43.262 11.838,43.462 12.088,43.587C12.288,43.712 12.538,43.675 12.625,43.5C12.713,43.337 12.588,43.137 12.338,43.012C12.088,42.937 11.888,42.975 11.8,43.1ZM15.85,47.55C15.65,47.713 15.725,48.088 16.013,48.325C16.3,48.612 16.663,48.65 16.825,48.45C16.988,48.287 16.913,47.912 16.663,47.675C16.388,47.387 16.013,47.35 15.85,47.55ZM14.425,45.713C14.225,45.838 14.225,46.163 14.425,46.45C14.625,46.737 14.963,46.862 15.125,46.737C15.325,46.575 15.325,46.25 15.125,45.963C14.95,45.675 14.625,45.55 14.425,45.713Z"/></svg>
