<svg xmlns="http://www.w3.org/2000/svg" width="24" height="24" viewBox="0 0 24 24"><path fill="currentColor" d="M11.962 20q-3.046 0-5.311-1.99q-2.264-1.989-2.62-5.01h1.011q.408 2.58 2.351 4.29T11.962 19q2.925 0 4.962-2.037T18.962 12t-2.038-4.963T11.962 5q-1.553 0-2.918.656q-1.365.655-2.41 1.805h2.481v1H4.962V4.309h1v2.388q1.16-1.273 2.718-1.984T11.962 4q1.663 0 3.118.626t2.542 1.714t1.714 2.542t.626 3.118t-.626 3.118t-1.714 2.542t-2.542 1.714t-3.118.626m3.204-4.146l-3.647-3.646V7h1v4.792l3.354 3.354z" stroke-width="1.2" stroke="currentColor"/></svg>
