<svg xmlns="http://www.w3.org/2000/svg" width="64" height="64" viewBox="0 0 64 64"><path d="M28.705 3.927a17.2 17.2 0 0 0-2.424.569c-4.518 1.43-7.916 4.099-10.365 7.594a18.932 18.932 0 0 0-2.095 3.884 19.514 19.514 0 0 0-1.225 4.773c-.227 1.786-.171 3.827.009 5.667.168 1.721.464 3.427.885 5.105 1.197 4.75 3.076 8.917 5.262 12.698 2.198 3.803 4.712 7.24 7.438 10.525.449.543.924 1.068 1.391 1.603a62.747 62.747 0 0 0 2.885 3.107c.234.227.483.519.81.682.387.181.828.21 1.236.081a2.42 2.42 0 0 0 .875-.618 56.504 56.504 0 0 0 2.183-2.303c2.841-3.163 5.508-6.491 7.852-10.114 2.343-3.623 4.456-7.543 5.99-11.972a40.029 40.029 0 0 0 1.316-4.671c.521-2.426.909-5.173.82-8.101a20.083 20.083 0 0 0-.295-2.7 18.807 18.807 0 0 0-1.42-4.569 19.19 19.19 0 0 0-2.238-3.75 19.486 19.486 0 0 0-6.46-5.511 18.83 18.83 0 0 0-4.332-1.659 18.495 18.495 0 0 0-5.382-.59c-.91.038-1.817.128-2.716.27Z" style="fill:#fff"/><path d="M31.433 0h1.137c3.608.13 6.598.926 9.179 2.138a23.474 23.474 0 0 1 6.668 4.653 23.27 23.27 0 0 1 6.828 15.805v1.622c-.18 5.036-1.271 9.257-2.664 13.102-1.393 3.846-3.208 7.284-5.206 10.553-1.982 3.242-4.247 6.25-6.635 9.131a78.904 78.904 0 0 1-3.723 4.158c-.631.654-1.241 1.391-2.028 1.916a5.356 5.356 0 0 1-3.013.921 5.243 5.243 0 0 1-2.992-.949c-.795-.53-1.389-1.265-2.027-1.916-.637-.651-1.272-1.364-1.889-2.056a82.643 82.643 0 0 1-8.45-11.242 55.98 55.98 0 0 1-5.206-10.561c-1.4-3.843-2.475-8.069-2.654-13.104v-1.466c.006 0 .011-.007.01-.019a23.132 23.132 0 0 1 6.807-15.867 23.16 23.16 0 0 1 6.663-4.673C24.821.942 27.811.118 31.433 0Zm-2.728 3.927a17.2 17.2 0 0 0-2.424.569c-4.518 1.43-7.916 4.099-10.365 7.594a18.932 18.932 0 0 0-2.095 3.884 19.514 19.514 0 0 0-1.225 4.773c-.227 1.786-.171 3.827.009 5.667.168 1.721.464 3.427.885 5.105 1.197 4.75 3.076 8.917 5.262 12.698 2.198 3.803 4.712 7.24 7.438 10.525.449.543.924 1.068 1.391 1.603a62.747 62.747 0 0 0 2.885 3.107c.234.227.483.519.81.682.387.181.828.21 1.236.081a2.42 2.42 0 0 0 .875-.618 56.504 56.504 0 0 0 2.183-2.303c2.841-3.163 5.508-6.491 7.852-10.114 2.343-3.623 4.456-7.543 5.99-11.972a40.029 40.029 0 0 0 1.316-4.671c.521-2.426.909-5.173.82-8.101a20.083 20.083 0 0 0-.295-2.7 18.807 18.807 0 0 0-1.42-4.569 19.19 19.19 0 0 0-2.238-3.75 19.486 19.486 0 0 0-6.46-5.511 18.83 18.83 0 0 0-4.332-1.659 18.495 18.495 0 0 0-5.382-.59c-.91.038-1.817.128-2.716.27Zm-5.906 12.761a7.364 7.364 0 0 1 3.667.763 6.651 6.651 0 0 1 2.387 2.038 7.027 7.027 0 0 1 1.268 3.161c.1.657.101 1.364.101 2.11v6.645c0 .364-.054.777.028 1.059.067.288.331.49.627.479.681.019 1.424.014 2.202.009.353 0 .568-.165.663-.455.085-.268.038-.7.038-1.068 0-2.212-.026-4.417.009-6.628.012-.774-.017-1.454.082-2.118.283-1.867 1.137-3.296 2.323-4.318a7.006 7.006 0 0 1 2.955-1.478 7.8 7.8 0 0 1 3.927.132 6.561 6.561 0 0 1 2.801 1.632c1.11 1.109 1.915 2.519 2.091 4.546a9.844 9.844 0 0 1-.092 2.065 16.34 16.34 0 0 1-.87 3.553c-.779 2.15-1.974 3.911-3.4 5.455a15.938 15.938 0 0 1-8.58 4.708 16.224 16.224 0 0 1-4.091.26 15.492 15.492 0 0 1-6.81-2.045 16.25 16.25 0 0 1-4.746-4.113c-1.628-2.077-2.841-4.584-3.252-7.823a9.772 9.772 0 0 1-.093-2.065 7.287 7.287 0 0 1 1.098-3.326c1.116-1.755 2.958-3.049 5.667-3.178Zm-2.424 1.392a5.878 5.878 0 0 0-1.769 1.319 6.09 6.09 0 0 0-1.213 1.869 6.22 6.22 0 0 0-.455 2.628c.089 1.921.91 3.21 1.946 4.228a5.783 5.783 0 0 0 1.869 1.216 6.287 6.287 0 0 0 2.638.462 5.975 5.975 0 0 0 2.45-.637 6.065 6.065 0 0 0 1.78-1.308c.981-1.071 1.723-2.466 1.667-4.497a6.136 6.136 0 0 0-.626-2.46 5.668 5.668 0 0 0-1.317-1.768c-1.038-.945-2.482-1.774-4.509-1.679a6.25 6.25 0 0 0-2.461.627Zm2.626 2.93a2.605 2.605 0 0 1 1.907.71c.506.463.802 1.112.82 1.797a2.56 2.56 0 0 1-.708 1.908 2.615 2.615 0 0 1-1.798.822 2.54 2.54 0 0 1-1.908-.709 2.59 2.59 0 0 1-.82-1.798l-.002-.116a2.626 2.626 0 0 1 2.509-2.612v-.002Zm13.388-1.612a5.602 5.602 0 0 0-1.216 1.871 6.335 6.335 0 0 0-.46 2.628c.035.852.252 1.687.635 2.449a6.143 6.143 0 0 0 1.31 1.778 6.075 6.075 0 0 0 4.506 1.679 6.192 6.192 0 0 0 2.46-.628 5.913 5.913 0 0 0 1.769-1.317 6.21 6.21 0 0 0 1.216-1.869c1.293-3.133-.221-6.775-3.353-8.069a6.217 6.217 0 0 0-2.637-.461c-1.953.087-3.218.908-4.23 1.939Zm4.398 1.612a2.569 2.569 0 0 1 1.908.71c.497.47.791 1.115.82 1.797a2.569 2.569 0 0 1-.71 1.908c-.468.5-1.114.795-1.797.822a2.644 2.644 0 0 1-2.737-2.5 2.644 2.644 0 0 1 2.516-2.737Zm4.293-6.912c-1.542-.659-3.864-1.011-5.99-.662-3.263.533-5.536 2.201-7.087 4.441-1.241-1.792-2.955-3.219-5.252-3.977a11.023 11.023 0 0 0-1.852-.461c-2.115-.319-4.432-.019-5.98.663-.005-.054.059-.108.101-.166a16.078 16.078 0 0 1 4.921-4.479C26 8.246 28.365 7.424 31.461 7.28a15.425 15.425 0 0 1 4.616.511c2.715.722 4.823 1.99 6.636 3.594.878.78 1.661 1.661 2.331 2.626.014.025.056.053.036.087ZM28.416 42.501a59.221 59.221 0 0 1-3.262 5.114 58.73 58.73 0 0 1-5.29-8.992c0-.016.009-.019.009-.01a19.425 19.425 0 0 0 8.543 3.888Zm-1.022 8.091a66.59 66.59 0 0 0 4.919-7.76c5.18-.162 8.787-1.898 11.805-4.221a57.065 57.065 0 0 1-5.455 9.262 76.47 76.47 0 0 1-5.777 7.086c-.21.227-.431.471-.664.719-.057.06-.208.227-.221.227a1.386 1.386 0 0 1-.157-.159c-.359-.361-.7-.76-1.041-1.134a70.585 70.585 0 0 1-3.409-4.02Z"/></svg>
