<svg xmlns="http://www.w3.org/2000/svg" width="64" height="64" viewBox="0 0 64 64"><path d="M28.518 2.299c.949-.15 1.906-.245 2.867-.285a19.566 19.566 0 0 1 5.68.622c1.59.393 3.126.982 4.572 1.752 2.672 1.413 5 3.399 6.817 5.815a20.242 20.242 0 0 1 2.363 3.958 19.844 19.844 0 0 1 1.498 4.823c.169.942.273 1.894.312 2.85.094 3.089-.315 5.988-.866 8.549a41.95 41.95 0 0 1-1.389 4.93c-1.619 4.675-3.848 8.812-6.322 12.635-2.473 3.824-5.288 7.337-8.286 10.675a60.762 60.762 0 0 1-2.304 2.431 2.556 2.556 0 0 1-.924.651c-.43.137-.896.106-1.305-.085-.344-.171-.607-.48-.854-.719a66.456 66.456 0 0 1-3.045-3.28c-.493-.565-.994-1.119-1.468-1.692-2.878-3.466-5.531-7.094-7.85-11.107-2.308-3.991-4.29-8.389-5.553-13.403a36.83 36.83 0 0 1-.935-5.387c-.19-1.942-.249-4.096-.009-5.982a20.594 20.594 0 0 1 1.293-5.037 19.932 19.932 0 0 1 2.21-4.098c2.586-3.689 6.171-6.506 10.94-8.016a18.233 18.233 0 0 1 2.558-.6Zm-6.233 13.468c-2.859.136-4.803 1.502-5.981 3.354a7.705 7.705 0 0 0-1.159 3.511c-.044.727-.011 1.458.098 2.179.434 3.418 1.714 6.064 3.433 8.256a17.136 17.136 0 0 0 5.009 4.341 16.35 16.35 0 0 0 7.186 2.159 17.128 17.128 0 0 0 4.318-.275 16.816 16.816 0 0 0 9.056-4.969c1.505-1.63 2.766-3.488 3.588-5.757.445-1.212.753-2.47.919-3.75a10.46 10.46 0 0 0 .097-2.18c-.186-2.138-1.036-3.627-2.207-4.797a6.942 6.942 0 0 0-2.956-1.723 8.227 8.227 0 0 0-4.145-.139 7.412 7.412 0 0 0-3.119 1.559c-1.252 1.08-2.153 2.587-2.452 4.558-.104.7-.074 1.419-.086 2.236-.037 2.333-.009 4.661-.009 6.995 0 .388.049.844-.041 1.127-.1.306-.326.48-.699.48-.822.006-1.605.011-2.325-.01a.656.656 0 0 1-.661-.505c-.087-.297-.03-.734-.03-1.118v-7.012c0-.788-.001-1.534-.106-2.228a7.416 7.416 0 0 0-1.339-3.336 7.012 7.012 0 0 0-2.519-2.151 7.772 7.772 0 0 0-3.87-.805Zm-2.558 1.47v-.002a6.604 6.604 0 0 1 2.598-.66c2.138-.101 3.662.774 4.758 1.771a5.986 5.986 0 0 1 1.39 1.866c.399.81.624 1.695.66 2.597.059 2.143-.724 3.615-1.759 4.746a6.397 6.397 0 0 1-1.878 1.38 6.282 6.282 0 0 1-2.586.672 6.617 6.617 0 0 1-2.784-.487 6.125 6.125 0 0 1-1.973-1.283c-1.094-1.075-1.96-2.435-2.053-4.463a6.564 6.564 0 0 1 .479-2.773c.302-.731.736-1.4 1.28-1.973a6.18 6.18 0 0 1 1.868-1.391Zm2.771 3.092v.002a2.771 2.771 0 0 0-2.645 2.879c.026.721.337 1.404.864 1.897a2.68 2.68 0 0 0 2.014.748 2.76 2.76 0 0 0 1.898-.867 2.694 2.694 0 0 0 .747-2.014 2.664 2.664 0 0 0-.865-1.896 2.748 2.748 0 0 0-2.013-.749Zm14.131-1.701v-.001c1.067-1.088 2.402-1.954 4.464-2.047a6.574 6.574 0 0 1 2.782.487c3.306 1.366 4.904 5.21 3.54 8.516a6.576 6.576 0 0 1-1.284 1.973 6.231 6.231 0 0 1-1.867 1.39 6.534 6.534 0 0 1-2.597.662 6.414 6.414 0 0 1-4.756-1.771 6.494 6.494 0 0 1-1.381-1.877 6.327 6.327 0 0 1-.671-2.585 6.699 6.699 0 0 1 .486-2.773 5.885 5.885 0 0 1 1.284-1.974Zm4.641 1.701a2.789 2.789 0 0 0-2.655 2.888 2.79 2.79 0 0 0 2.888 2.638 2.744 2.744 0 0 0 1.896-.867 2.71 2.71 0 0 0 .75-2.014 2.78 2.78 0 0 0-.865-1.896 2.715 2.715 0 0 0-2.014-.749ZM27.134 51.55a75.37 75.37 0 0 0 3.598 4.242c.36.395.72.816 1.099 1.197.051.06.106.116.165.168.015 0 .174-.176.234-.24.246-.261.479-.519.701-.759a80.612 80.612 0 0 0 6.097-7.478 60.324 60.324 0 0 0 5.758-9.775c-3.186 2.452-6.993 4.284-12.46 4.454a69.968 69.968 0 0 1-5.192 8.191Zm1.08-8.54a20.503 20.503 0 0 1-9.017-4.103c0-.009-.01-.007-.01.01a62.007 62.007 0 0 0 5.583 9.491 62.805 62.805 0 0 0 3.444-5.398ZM45.8 13.034c.022-.036-.022-.066-.037-.093a15.668 15.668 0 0 0-2.461-2.771c-1.913-1.693-4.138-3.031-7.003-3.793a16.242 16.242 0 0 0-4.872-.539c-3.267.152-5.763 1.019-7.937 2.297a16.974 16.974 0 0 0-5.193 4.727c-.044.061-.113.119-.107.176 1.634-.72 4.08-1.037 6.311-.7.665.106 1.319.268 1.955.486 2.424.8 4.233 2.306 5.543 4.198 1.637-2.364 4.036-4.125 7.479-4.687 2.244-.368 4.695.003 6.322.699Z"/></svg>
