<svg xmlns="http://www.w3.org/2000/svg" xml:space="preserve" style="fill-rule:evenodd;clip-rule:evenodd;stroke-linejoin:round;stroke-miterlimit:2" viewBox="0 0 128 186">
  <path d="M53.204.928c2.943-.467 5.911-.761 8.888-.885 5.934-.224 11.869.427 17.613 1.93 4.931 1.219 9.693 3.043 14.177 5.43 8.286 4.384 15.504 10.541 21.138 18.033 2.901 3.799 5.359 7.916 7.327 12.272 2.177 4.767 3.738 9.792 4.645 14.954.521 2.92.844 5.873.967 8.836.29 9.58-.979 18.569-2.686 26.509-1.124 5.178-2.562 10.282-4.306 15.285-5.021 14.496-11.934 27.323-19.603 39.179-7.668 11.856-16.396 22.749-25.694 33.098-2.31 2.579-4.692 5.093-7.144 7.539-.792.878-1.77 1.568-2.863 2.019-1.334.423-2.779.328-4.047-.264-1.067-.532-1.881-1.488-2.647-2.231-3.262-3.282-6.411-6.673-9.443-10.168-1.528-1.752-3.083-3.47-4.552-5.247-8.922-10.748-17.148-21.998-24.34-34.441-7.155-12.373-13.303-26.011-17.219-41.556C2.036 85.731 1.069 80.147.518 74.515c-.589-6.021-.774-12.7-.03-18.547.672-5.354 2.019-10.603 4.009-15.619 1.781-4.489 4.083-8.753 6.854-12.708C19.368 16.203 30.485 7.47 45.272 2.788c2.596-.81 5.246-1.433 7.932-1.86Zm-19.327 41.76c-8.866.42-14.894 4.656-18.546 10.398-2.063 3.283-3.296 7.02-3.593 10.886-.136 2.256-.034 4.521.305 6.757 1.346 10.599 5.314 18.803 10.644 25.601 4.251 5.454 9.527 10.026 15.53 13.459 6.808 3.928 14.438 6.22 22.284 6.694 4.481.283 8.979-.004 13.388-.852 10.742-2.062 20.568-7.454 28.078-15.407 4.667-5.054 8.579-10.815 11.127-17.851 1.38-3.758 2.335-7.659 2.849-11.629.335-2.236.436-4.501.301-6.758-.577-6.63-3.213-11.246-6.843-14.875-2.561-2.518-5.713-4.354-9.167-5.341-2.041-.605-4.15-.952-6.278-1.034-2.208-.092-4.42.111-6.575.603-3.562.818-6.877 2.476-9.669 4.834-3.883 3.348-6.675 8.022-7.602 14.132-.323 2.172-.23 4.4-.267 6.933-.116 7.233-.03 14.451-.03 21.688 0 1.205.152 2.619-.126 3.496-.309.949-1.012 1.488-2.169 1.488-2.547.018-4.976.033-7.207-.03-.966.036-1.83-.624-2.049-1.566-.272-.922-.093-2.276-.093-3.466V69.104c0-2.444-.004-4.757-.331-6.906-.514-3.737-1.94-7.29-4.15-10.346-2.034-2.815-4.712-5.101-7.81-6.669-3.718-1.852-7.853-2.712-12.001-2.495Zm-7.933 4.556v-.004c2.517-1.226 5.259-1.924 8.056-2.049 6.63-.312 11.357 2.402 14.753 5.493 1.802 1.627 3.267 3.593 4.31 5.786 1.237 2.512 1.935 5.255 2.049 8.052.182 6.646-2.246 11.209-5.456 14.716-1.663 1.771-3.637 3.221-5.824 4.28-2.492 1.26-5.227 1.97-8.018 2.083-2.952.123-5.896-.392-8.631-1.51-2.278-.918-4.355-2.27-6.118-3.979-3.392-3.332-6.077-7.55-6.367-13.838-.132-2.94.376-5.874 1.488-8.599.936-2.265 2.281-4.339 3.968-6.117 1.64-1.791 3.605-3.255 5.79-4.314Zm8.595 9.587v.008c-4.56.182-8.213 3.983-8.213 8.546 0 .127.003.253.009.379.081 2.238 1.045 4.354 2.681 5.883 1.666 1.61 3.931 2.452 6.244 2.321 2.237-.092 4.351-1.058 5.884-2.689 1.603-1.669 2.443-3.932 2.317-6.244-.059-2.242-1.027-4.366-2.682-5.879-1.678-1.589-3.932-2.429-6.24-2.325Zm43.813-5.273v-.004c3.31-3.373 7.449-6.058 13.842-6.345 2.951-.129 5.895.386 8.627 1.51 10.251 4.235 15.205 16.152 10.975 26.405-.948 2.262-2.296 4.334-3.979 6.117-1.643 1.788-3.607 3.25-5.791 4.311-2.513 1.233-5.254 1.932-8.051 2.053-5.459.275-10.797-1.714-14.746-5.493-1.767-1.666-3.219-3.638-4.284-5.82-1.256-2.493-1.964-5.226-2.079-8.015-.114-2.94.399-5.871 1.506-8.598.902-2.287 2.255-4.369 3.98-6.121Zm14.392 5.273c-4.713.202-8.428 4.242-8.234 8.955.23 4.693 4.261 8.376 8.955 8.182 2.237-.088 4.351-1.054 5.88-2.689 1.602-1.671 2.444-3.932 2.324-6.244-.095-2.233-1.058-4.343-2.681-5.879-1.672-1.601-3.933-2.442-6.244-2.325Zm-43.831 96.808c3.555 4.52 7.277 8.908 11.156 13.154 1.116 1.223 2.232 2.529 3.407 3.711.158.186.329.36.513.521.045 0 .539-.547.725-.744.763-.811 1.484-1.61 2.172-2.354 6.759-7.345 13.073-15.088 18.907-23.188 6.89-9.519 12.867-19.667 17.851-30.309-9.877 7.602-21.681 13.284-38.632 13.812-4.774 8.827-10.153 17.313-16.099 25.397Zm3.347-26.479c-10.219-1.893-19.819-6.262-27.959-12.722 0-.03-.03-.023-.03.029 4.886 10.304 10.679 20.152 17.312 29.428 3.842-5.392 7.405-10.978 10.677-16.735Zm54.53-92.947c.067-.112-.07-.205-.115-.287-2.194-3.157-4.756-6.042-7.631-8.594-5.932-5.248-12.831-9.398-21.715-11.76-4.922-1.317-10.015-1.882-15.106-1.673-10.131.472-17.87 3.161-24.609 7.125-6.331 3.709-11.816 8.702-16.103 14.657-.137.189-.349.368-.331.543 5.066-2.232 12.649-3.213 19.569-2.168 2.061.327 4.089.831 6.062 1.506 7.516 2.48 13.124 7.151 17.186 13.016 5.076-7.33 12.514-12.789 23.191-14.534 6.958-1.141 14.556.012 19.602 2.169Z"/>
</svg>
