<svg xmlns="http://www.w3.org/2000/svg" width="24" height="24" viewBox="0 0 24 24"><path fill="currentColor" d="M12.217 18.692q.223-.025.35-.153q.125-.13.125-.311q0-.212-.144-.329q-.144-.116-.367-.091q-1.025.075-2.29-.64q-1.266-.714-1.566-2.39q-.05-.236-.166-.353q-.117-.117-.295-.117q-.197 0-.335.147t-.083.44q.387 2.082 1.923 2.98t2.848.817M11.997 21q-2.999 0-4.998-2.064T5 13.8q0-2.154 1.738-4.765T12 3.308q3.525 3.117 5.262 5.728Q19 11.646 19 13.8q0 3.073-2.002 5.137Q14.994 21 11.996 21M12 20q2.6 0 4.3-1.763T18 13.8q0-1.825-1.513-4.125T12 4.65Q9.025 7.375 7.513 9.675T6 13.8q0 2.675 1.7 4.438T12 20m0-7.846" stroke-width="1.2" stroke="currentColor"/></svg>
